<svg width="400" height="400" viewBox="0 0 400 400" style="enable-background:new 0 0 400 400;" xmlns="http://www.w3.org/2000/svg" display="block"><path d="M188.567.316C82.881 6.317.008 94.079.008 200 .008 310.371 89.631 399.994 200 399.994c120.382 0 213.69-106.04 198.392-225.464C385.074 70.563 293.305-5.631 188.567.316m25.905 40.355c89.654 8.255 154.956 88.738 144.424 177.998-10.952 92.826-98.954 156.622-190.589 138.166-84.903-17.1-140.955-99.308-125.881-184.621C56.877 90.426 131.897 33.067 214.472 40.671m-34.443 119.242v80.029h39.942V79.884h-39.942v80.029m0 140.087v20.116h39.942v-40.232h-39.942V300" fill="red" fill-rule="evenodd"/></svg>
